<svg id="Слой_1" data-name="Слой 1" xmlns="http://www.w3.org/2000/svg" viewBox="0 0 39.47 200.15"><defs><style>.cls-1{fill:none;stroke:#000;stroke-miterlimit:10;stroke-width:16px;}</style></defs><path class="cls-1" d="M633.5,330.5c-3.16,13.41-.86,21.76,2,27,4.7,8.6,11.43,9.78,13,18,1.6,8.38-4.78,10.42-4,20,.89,10.95,9.59,12.73,9,22-.49,7.75-6.67,8.08-8,17-1.42,9.53,5.25,11.77,4,21-1.33,9.85-9.37,10.6-10,20-.59,8.68,6.12,10.26,5,18-1.2,8.31-9.37,9.58-13,20a28.42,28.42,0,0,0-1,14" transform="translate(-622.05 -328.66)"/></svg>